<?xml version="1.0" encoding="UTF-8"?>
<svg id="SVGRoot" width="500" height="128.04" version="1.1" viewBox="0 0 500 128.04599" xmlns="http://www.w3.org/2000/svg" xmlns:cc="http://creativecommons.org/ns#" xmlns:dc="http://purl.org/dc/elements/1.1/" xmlns:rdf="http://www.w3.org/1999/02/22-rdf-syntax-ns#"><metadata><rdf:RDF><cc:Work rdf:about=""><dc:format>image/svg+xml</dc:format><dc:type rdf:resource="http://purl.org/dc/dcmitype/StillImage"/><dc:title/></cc:Work></rdf:RDF></metadata><g fill="#0a8354"><path d="m68.226 79.825c-0.36891 0.3125 1.4521 0.78476 0.52399 1.142-0.93051 0.3548-1.4592 1.7153-1.4592 1.7153s-2.996-1.1139-2.3756-1.6803c0.41824-0.38767-1.9762-2.4742-1.7201-2.9042 0.27962-0.46768 3.4377 0.38767 3.5364 1.0151 0.0517 0.33595 1.8094 0.44398 1.4944 0.71202m12.101 3.1086-0.93992-2.6881c-0.33599-1.0339-0.69316-2.0208 0.42061-3.0946 0.94932-0.91891 2.2605-0.90948 3.1299-0.27504 1.5578 1.1304 1.0762 3.6046-0.14568 5.2682 0 0 0.41121 0.3548 0.21619 0.74972-0.25849 0.52157-0.72374 1.7716-1.2242 1.9761-0.4958 0.20206-1.0785 1.0479-1.1842 1.4639-0.27727 1.1067 0.20679-2.0631-0.27258-3.4001m3.7643-8.8517c0.73077 0.72845 2.6881 0.35963 3.6586 0.23976 0.97281-0.12205 0.82949 1.3252 0.74958 2.2465-0.0846 0.97498-1.4568 2.0394-1.4568 2.0394l-0.45585-0.32894c-0.39241 0.35262-0.80596 0.29607-1.0879 0.0894-0.20208-0.14574-0.36655-0.3548-0.44411-0.53583-0.31721-0.68374-1.0456-1.3957-1.4145-1.6614-0.78954-0.57547-1.7271-0.85752-2.7046-0.86937 0 0 2.4297-1.9457 3.1557-1.2195m-3.1722 41.114c2.5589-0.42537 6.3961 1.7082 10.233 1.2807 3.8395-0.42537 2.3169-1.1608 2.3169-1.1608s-3.3743-0.60858-5.5196-3.9828c-2.1454-3.3742-1.8399-13.8-0.92111-15.947 0.92111-2.1453 3.6797-3.3718 3.6797-3.3718s3.6821 0.92108 4.9064 0.61317l4.293 0.91891s-0.30547 1.8398 1.2266 2.4554c1.5344 0.61099 4.2929 1.2244 6.1329 0.61099 1.84-0.61099 0.92108-2.1453 2.4532-2.1453 1.5344 0 2.4532 2.4532 3.9876 3.3718 1.5318 0.92108 1.2265-0.3055 3.0663 0.92108 1.84 1.2265 3.6773 2.1477 5.2118 0.92108 1.532-1.2265 0.92109-1.8422 1.532-3.0687 0.61317-1.2265 2.7587-2.1453 2.4556-3.3718-0.30792-1.2265-1.5344-2.1477-0.92133-3.6797 0.61341-1.532 2.1455-3.6821 2.1455-3.6821s2.7587 0 3.9874-0.61341c1.2244-0.61076 2.1455-0.30526 0.91891-1.8374-1.2241-1.532-1.84-3.0666-1.84-3.0666s2.1455-1.532 1.84-2.7587c-0.3055-1.2265 0-0.92108 1.2265-2.1453 1.229-1.229-0.3055-1.8446-0.3055-3.6821 0-1.8376 0.3055-2.7587 1.2266-3.3718 0.91648-0.61341 0.3079-1.84 2.1453-2.1455 1.84-0.30768 1.6638-1.278 2.277-2.5071 0.61342-1.2266-1.0525-3.0149-2.5825-3.9335-1.5318-0.92108 0-2.1477-2.1453-2.4532-2.1477-0.30792-2.7611 1.8398-2.7611 0 0-1.84 0.61341-3.6797 0.61341-3.6797s0.3055-0.61341-1.5344-2.1477c-1.8374-1.532-1.5318-1.84-3.0663-1.84-1.532 0-3.3718 0.30791-4.2907-1.2241-0.92109-1.5344 1.84-1.229 0.61099-2.7611-1.2241-1.532-2.1453-1.2265-3.0666-2.7587-0.91866-1.5342 0-2.7609-1.5318-3.3742-1.5344-0.61317-1.5344-0.61317-3.68 0-2.1453 0.61341-3.0663 1.2265-2.7584-0.30549 0.30526-1.5342 0.91866-1.2287 0.91866-2.7609 0-1.5321 1.2265-1.84 0.61341-3.6797-0.61341-1.84-1.2268-2.1455-1.2268-3.3721 0-1.2266-0.30526-0.30768-1.2263-1.5318-0.91891-1.2265 0.61317-2.1479-1.2268-2.7611-1.8398-0.61341-3.985 0.61317-4.5984-0.61341-0.61317-1.2265-0.61317-1.8398-1.8398-2.7609-1.2266-0.91891-1.84 0-3.0665-1.5344-1.2265-1.5296-1.8399-0.61099-2.761-1.8376-0.91876-1.2266 0.30782-0.61317-0.91876-2.1453-1.2266-1.5366-1.8399-0.92109-3.3743-1.8422-1.532-0.91891-1.532-2.4532-3.3719-2.1455-1.8399 0.3055-2.1454 0.3055-2.1454 1.84 0 1.532-1.5344 2.4532 0.30547 3.0663 1.8399 0.61342 3.0641 1.84 1.532 1.84-1.532 0-1.532-0.3055-2.761-0.92109-1.2242-0.61341-2.1454-1.532-3.6797-2.1431-1.532-0.61559-0.61095 1.8376-2.7563 0.91891-2.1477-0.91891-0.92111-1.229-2.4555-2.4556-1.532-1.2241-1.2242-1.5344-3.0641-2.1455-1.8399-0.61317-1.8399-1.2287-3.6797-0.30767-1.8399 0.91867-0.91876 0.61317-3.0665 1.229-2.1477 0.61075-3.0665 0.30526-2.4532 1.8398 0.6133 1.532 0.91877 2.1453-0.61329 3.0642-1.532 0.92109-0.61329 2.7609-1.8423 2.1453-1.2242-0.61099-2.1454 0.30792-2.7563-1.5296-0.61563-1.8398 0.46762-2.0044-0.30782-2.7587-1.1466-1.1231-1.5344 1.5296-3.6797 1.8376-2.1454 0.30549-0.92111 0.61317-2.1454 1.8398-1.2265 1.2265 3.0641 1.5344-0.61329 3.0666-3.6797 1.532-3.3743 0-4.6008 1.532-1.2265 1.5342-0.61329 1.8398-2.4532 2.4556-1.8399 0.61075-1.2265-0.31033-3.0665 1.5318-1.8399 1.8376-2.7586 1.532-2.7586 3.3721 0 1.8398 1.2265 1.8398-0.30782 3.0663-1.532 1.2266-1.2265 2.1455-0.30548 3.6797 0.91877 1.5344 3.0641 3.9876 0.6133 3.0666-2.4532-0.91891-3.0665-1.84-3.3719-0.61342-0.30782 1.2266-1.5344 0.92109-2.1477 3.0666-0.61329 2.1477 0 0.61317 0.30548 2.7609 0.30782 2.1455 1.9879 1.9365-1.7083 2.5237-1.7647 0.27964-0.74489 1.156-2.8902 1.7671-2.1477 0.61341-3.3743 0-3.6797 1.5344-0.30782 1.5342 0.91876 2.4532-0.61329 3.3718-1.5344 0.92108-1.2265 1.2265-2.1454 3.0666-0.92111 1.8398-2.4532 2.7587-2.4532 4.6008 0 1.8398 1.8376 2.1477 0.30547 3.9874-1.532 1.8376-1.532 1.8376-0.30547 3.6775 1.2242 1.8398 2.7587 2.1477 2.7587 3.9898 0 1.8376-0.6133 2.7563 0.61329 4.2907 1.2265 1.532 4.293 2.1453 2.4532 3.6773-1.8399 1.5344-0.92111 0.92108-2.761 2.1453-1.8399 1.229-3.3719 0.31033-2.1454 2.4556 1.2265 2.1477 2.4532 0.91891 2.4532 3.3721 0 2.4532 0.92111 2.4532 3.0665 3.3742 2.1477 0.91867 2.7587 3.9874 4.293 3.0663 1.532-0.92109 1.532-1.532 2.7587 0.61341 1.2265 2.1477 2.1477 3.9874 3.0665 2.1477 0.92111-1.84 1.5344-1.5345 2.7587-2.1477 1.2289-0.61341 0-1.2265 2.1477-1.2265 2.1454 0 2.1454 1.2265 3.6797 0.3055 1.5344-0.91891 0.30782-2.1455 2.1477-1.84 1.8376 0.30792 2.1454 0.30792 2.4532 1.5344 0.30547 1.2265 0.0164 1.8586 1.8564 1.8586 1.8399 0 2.3663-2.5424 2.6717-1.0081 0.30782 1.5296 1.8399 3.0642 3.0665 2.7587 1.2265-0.30549 2.4532 0.92109 2.1453-1.229-0.30545-2.1429 0.99161-1.1536 1.297-2.6881 0.30548-1.532-0.0189-2.4367 0.89056-3.5246 1.0597-1.2713 4.0181-1.3793 4.0181-1.3793s3.3719-0.61559 5.8251 2.4532c2.4532 3.0642 2.7352 6.027 2.7587 10.118 0.0164 2.6622 0.22794 4.4246-1.0809 6.7461-1.2242 2.1714-4.8194 4.2015-4.8194 4.2015s-1.3558 1.2077 0.95637 1.25c2.0655 0.0353 7.7471-1.0786 8.9526-1.2807m-13.083-26.51c-0.46291-0.27964-1.4545 0.80604-2.8973 0.41111-1.2829-0.34997-1.6284-0.64362-2.1407 0.0587-1.29 1.7789-1.9738 0.22816-2.4861 0-0.81772-0.67891 0.94225-1.6965 2.6247-2.5378 1.2242-0.61317 0.42058-2.9982 1.9057-2.9982 0.55925 0 0.43704 1.3887 1.6637 0.84834 1.1443-0.50755 0.57099 1.7153 0.57099 1.7153l0.44882 0.32894c0.4253-0.27021 0.75661-0.36181 1.1255-0.0964 0.45352 0.32894 0.90231 1.5649 2.0396 2.3945 0.30313 0.21149 0.61798 0.39251 0.9446 0.54284 0.34777 0.15758-2.23 0.27505-3.7995-0.6673m7.2514-6.5182 0.74487 2.3966c0.40652 1.0552 0.56865 2.1148-0.54514 3.1886-1.1842 1.1444-2.7328 1.1115-3.8395 0.30791-1.7412-1.2642-0.97749-3.9265 0.39006-5.7264 0 0-0.8318-2.0421-0.70022-2.4979 0.15038-0.53584 0.95166-2.6434 1.6331-1.3628 0.68377 1.2853 1.7365 1.8188 2.3169 3.694m13.351-2.0445c-0.4253 0.42078-0.76132 0.31033-1.3017 1.4146-0.5381 1.1067-1.2007 2.6693-1.2007 2.6693s1.9433-0.51915 2.7116-1.2171c0.52164-0.47686 1.525-1.3297 2.0796-1.5978 0.60389-0.29366 1.0808-1.1371 0.4159-1.5013-0.66499-0.37123-0.78716 0.62743-1.5461 0.43698-0.40886-0.10103-0.79422-0.56387-1.1584-0.20448m6.3726 8.4029c3.2333 0.38526 3.722 1.9222 5.2565 1.6143 1.532-0.30792 4.8922-1.7342 3.0665-1.5344-2.7611 0.3055-4.8147-2.4907-4.8147-2.4907-1.3393 1.9362-3.5082 2.4109-3.5082 2.4109m-5.898 0.66973c1.8799-1.6072 4.9299-2.5356 6.0342-2.5356 1.1044 0 5.0944-2.4201 1.4733-2.5542-1.3793-0.0515-1.1161-2.5658-2.5237-2.5777-1.3699-0.01-1.5626 1.4663-2.5989 2.364-0.94932 0.81764-1.5508 1.0008-2.5025 2.016-0.82477 0.87662-0.8835 1.9763-0.72843 2.4181 0.42296 1.1934 0.43236-0.18804 0.84592 0.86937m-88.918-25.173c0-35.362 35.944-64.024 80.283-64.024 44.342 0 80.285 28.663 80.285 64.024s-35.942 64.022-80.285 64.022c-44.337 0-80.283-28.66-80.283-64.022"/><path d="m219.47 71.804c-1.1161 2.8128-2.7608 4.9769-4.8898 6.4314-2.1337 1.445-4.6196 2.1806-7.3947 2.1806-4.1919 0-7.7072-1.5883-10.454-4.7182-2.7633-3.1603-4.1638-7.9939-4.1638-14.364 0-3.2638 0.54526-6.3797 1.619-9.2604 1.062-2.808 2.7258-4.984 4.9392-6.4618 2.2371-1.4757 4.8102-2.2229 7.6439-2.2229 2.5893 0 4.9438 0.61558 6.9974 1.8282 2.0679 1.2217 3.8279 3.2778 5.2331 6.1116 1.4238 2.8503 2.1477 6.516 2.1477 10.893 0 3.4871-0.56629 6.711-1.6779 9.5823m3.3484-26.55c-3.6773-3.7409-8.6777-5.6372-14.862-5.6372-6.6426 0-12.15 2.1361-16.371 6.3492-4.2344 4.2037-6.3821 9.6599-6.3821 16.214 0 6.9648 1.8681 12.43 5.5526 16.247 3.6867 3.823 8.7504 5.7593 15.052 5.7593 6.7134 0 12.209-2.1267 16.336-6.3234 4.1285-4.2013 6.2199-9.9794 6.2199-17.177 0-6.4996-1.8659-11.692-5.5456-15.431"/><path d="m249.93 66.004c-2e-3 0-4.3917-0.0894-4.6924-0.0964 0.11963-0.28181 2.7398-6.5182 2.7398-6.5182s3.2568-7.7544 3.447-8.2055c0.18345 0.43698 6.1 14.432 6.2223 14.723-0.31032 2e-3 -7.7121 0.0964-7.7167 0.0964m24.772 13.71h-2e-3c-3.3462-0.9728-3.8936-1.2311-3.9828-1.2853 0-7e-3 -0.80362-0.94936-0.80362-0.94936 0-0.01-6.5254-14.234-6.5254-14.234-3.6585-8.175-6.7956-15.607-9.3215-22.091l-0.11504-0.30767-2.5192-0.0706c-0.0986 0.0657-7.9608 18.296-7.9608 18.296-4.3378 10.012-7.0706 16.014-8.1208 17.842-0.46526 0.77534-0.90465 1.323-1.309 1.6261-0.55686 0.41353-1.6612 0.80822-3.2826 1.1724 2e-3 0-0.37125 0.0752-0.37125 0.0752l-0.087 2.6555v0.11263l7.0025-0.33837 7.2348 0.32435c0.11528-0.10586 0.12471-0.60399 0.12471-0.60399v-2.0138c-0.0776-0.1032-1.2995-0.46284-1.2995-0.46284-2.627-0.55927-3.0429-0.7473-3.1062-0.7896-0.0242-0.0329-0.0423-0.0752-0.0423-0.15274 0-0.21607 0.13608-0.69075 0.63661-1.8727 0 0 2.815-6.7862 2.8198-6.7956 2e-3 0.0657 7.2819 0.0169 7.2819 0.0169s8.3558 0.0493 8.3582 0.0493c-2e-3 0-2e-3 0-2e-3 2e-3 0 0.1646 2.6412 6.4713 2.6412 6.4713 0.48869 1.1818 0.54284 1.6356 0.54284 1.7765 0 0.11504-0.0353 0.29607-0.33136 0.5194-0.0752 0.0539-0.61099 0.36181-3.7266 1.0151 0 0-0.38308 0.0868-0.38308 0.0868l-0.087 2.6461c0.11287 0.10803 9.0303-0.21632 9.0303-0.21632l8.001 0.32435c0.11286-0.10586 0.12205-0.60398 0.12205-0.60398v-2.0138c-0.0773-0.1032-0.41571-0.20907-0.41571-0.20907"/><path d="m280.68 42.034v2.0467c0.087 0.10586 1.739 0.4464 1.739 0.4464 2.9254 0.49354 4.0087 0.89764 4.4033 1.1492-0.0587-0.0918 0.15734 0.23009 0.15734 0.23009-7e-3 -5e-3 0.073 0.2939 0.073 2.1407 0 2e-3 0.14091 15.299 0.14091 15.299l-0.21608 13.419c-0.0471 1.3747-0.28447 1.6426-0.31033 1.6684-0.0797 0.073-0.67431 0.47467-4.1425 0.98223 0.0169 0-1.767 0.36882-1.767 0.36882-0.087 0.10827-0.0776 0.49354-0.0776 0.49354v2.1525c0.11287 0.10803 10.141-0.21632 10.141-0.21632l9.0537 0.32435c0.11288-0.10586 0.12931-0.60399 0.12931-0.60399v-2.0443c-0.087-0.10586-0.47469-0.19264-0.47469-0.19264-1.2828-0.24676-4.5375-0.9119-5.0287-1.0716-0.47926-0.17378-0.65546-0.34779-0.71661-0.46526-0.0447-0.0916-0.15274-0.44882-0.15274-1.7318 0 0-0.0611-11.702-0.0682-13.036 0.33136 0.31951 3.1369 3.0195 3.1369 3.0195 6.4971 6.1423 10.64 10.207 11.986 11.753 0 2e-3 0.39008 0.60375 0.39008 0.60375l-0.15033 0.16458c-0.0611 0.0423-0.46525 0.23976-2.7985 0.77534l-0.36906 0.0824-0.0846 2.6388c0.11046 0.10803 10.381-0.21632 10.381-0.21632l9.3945 0.32435c0.11263-0.10586 0.11988-0.60399 0.11988-0.60399v-2.0443c-0.087-0.10586-0.46767-0.18104-0.46767-0.18104-3.3813-0.74488-5.4258-1.25-6.079-1.5038-0.0145-0.0145-0.28664-0.1716-1.7646-1.0409 0.0121 0.01-8.9856-8.2666-8.9856-8.2666-3.9217-3.6797-6.8659-6.544-8.7504-8.5109 0.10803 0.0471 3.0782-2.5801 3.0782-2.5801 7e-3 -5e-3 7.6531-6.9834 7.6531-6.9834 2e-3 0 0.1409-0.1293 4.965-4.6549 0 0-0.0283-2e-3 -0.0469-5e-3 0.11263-0.0283 0.37366-0.1716 1.2618-0.67673 0.29825-0.12229 1.3087-0.45123 4.5631-1.2265l0.37124-0.0822 0.087-2.6388c-0.11505-0.10828-9.0349 0.20665-9.0349 0.20665l-7.357-0.31493c-0.11286 0.10586-0.1293 0.59916-0.1293 0.59916v2.0232c0.08 0.10585 1.0832 0.37848 1.0832 0.37848 2.2606 0.47226 2.6999 0.69776 2.7821 0.75649 7e-3 0.0283 0.01 0.0587 0.01 0.0964 0 0.29825-0.24919 0.90465-1.6544 2.3543-4.4033 4.5469-8.9738 8.7717-13.579 12.576 7e-3 -0.46307 0.12906-8.706 0.12906-8.706 0.0682-4.7842 0.15516-5.4985 0.1716-5.5925-0.0916 0.0892 0.37365-0.48628 0.37365-0.48628 2e-3 7e-3 0.42054-0.20448 4.0674-0.91408-0.0217 0 1.5978-0.33136 1.5978-0.33136l0.0894-2.6458c-0.11287-0.10828-8.3347 0.18078-8.3347 0.18078-2e-3 0-1.7506 0.0259-1.7506 0.0259l-9.1195-0.31493c-0.11046 0.10586-0.11988 0.60157-0.11988 0.60157"/><path d="m329.66 41.994-1.0105 11.572 0.64145 7e-3h2.559c0.10562-0.0846 0.19022-0.44881 0.19022-0.44881 0.63927-2.6506 1.1374-4.4529 1.438-5.2048 0.3548-0.89523 0.75673-1.4943 1.1654-1.7388 0.14332-0.10102 0.56168-0.26103 1.8072-0.26103l1.2287-0.0242h6.2129c-0.0329 2e-3 -0.0469 1.3981-0.0469 3.2638 0 3.7762 0.0493 9.4791 0.0493 9.4791l-0.11747 13.327c-0.0682 5.388-0.16701 6.0084-0.18561 6.0812-5e-3 0-0.21632 0.37365-0.21632 0.37365-0.0469 0.0242-0.60858 0.3432-4.145 0.93535-7e-3 2e-3 -1.9174 0.43238-1.9174 0.43238-0.0611 0.0797-0.0682 0.29824-0.0682 0.4157 0 0.0447 2e-3 2.2231 2e-3 2.2231 0.11045 0.10804 9.0818-0.21631 9.0818-0.21631l10.418 0.32435c0.11287-0.10586 0.1293-0.60399 0.1293-0.60399v-2.0443c-0.0846-0.10585-1.7058-0.4464-1.7058-0.4464-3.7762-0.74029-4.319-1.0433-4.3893-1.0975-0.0331-0.028-0.17159-0.1878-0.21148-0.73304-0.14574-2.4273-0.21631-7.0774-0.21631-13.818l0.21631-18.047 5.6677 0.10803c2.6388 0 3.3341 0.21632 3.5081 0.31033 0.37365 0.1832 0.66272 0.50514 0.8858 0.98682 0.13873 0.33354 0.54526 1.5579 1.6848 5.9753l0.0916 0.36422 3.0946 0.0824h0.11746l-0.92326-12.028-0.5757-0.10103c-2e-3 0-16.087 0.30067-16.087 0.30067l-18.225-0.30792c-0.11046 0.0988-0.15034 0.5571-0.15034 0.5571"/><path d="m390.4 60.644c-0.0121 0-4.0038-0.27505-4.0062-0.27505 0.10102-2e-3 0.26079-14.594 0.26079-14.61 7e-3 0.0962 5.2612-0.20447 5.2612-0.20447 2.5682 0 4.5516 0.63903 5.8837 1.8961 1.3184 1.2524 1.9858 2.9938 1.9858 5.1744 0 2.5235-0.76132 4.5092-2.263 5.898-1.4992 1.4073-3.8982 2.1218-7.1221 2.1218m24.645 19.071h2e-3c-2.3759-0.52399-4.1708-1.0151-5.1954-1.4167-0.68374-0.2562-1.2384-0.56411-1.652-0.91166-0.15975-0.14116-0.64628-0.66973-2.0936-2.5801 0 0-8.349-10.858-8.8493-11.509 1.8516-0.56628 3.2495-1.1584 4.2296-1.8069 1.6448-1.1067 2.916-2.479 3.7807-4.0792 0.87396-1.6119 1.3157-3.4823 1.3157-5.5572 0-3.1181-0.98223-5.6394-2.9208-7.4982-1.9548-1.8234-4.864-2.7468-8.6424-2.7468-2e-3 0-4.1285 0.094-4.1285 0.094l-4.7864 0.0493-12.373-0.3055c-0.11287 0.10586-0.11988 0.59214-0.11988 0.59214v2.0467c0.087 0.10585 1.7552 0.45582 1.7552 0.45582 1.9763 0.32193 3.3438 0.7026 4.1851 1.1656 0 0.0121 0.27722 0.34997 0.27722 0.34997 5e-3 0.0447 0.0822 0.53825 0.10803 3.2921l0.11528 13.224c-0.0681 12.183-0.12229 14.136-0.14114 14.408-0.0399 0.6603-0.19021 1.1398-0.42996 1.3534-0.094 0.0918-0.67215 0.43479-4.1943 1.1185-2e-3 0-1.5908 0.33595-1.5908 0.33595l-0.0846 2.646c0.11287 0.10804 9.8784-0.21631 9.8784-0.21631l9.3945 0.32435c0.11263-0.10586 0.12689-0.60399 0.12689-0.60399v-2.0443c-0.087-0.10585-2.0421-0.53099-2.0421-0.53099-2.9796-0.54768-3.7549-0.91191-3.9548-1.081-0.16676-0.15252-0.27239-0.4464-0.30526-0.84592 0-0.0145-0.19044-12.799-0.20228-13.457 0.20446 0.0169 4.1687 0.3009 4.1708 0.3009 0 0.0657 5.9567 8.2407 5.9567 8.2407 2e-3 2e-3 0.56628 0.73063 0.56628 0.73063l2.5919 3.7315 3.5623 5.4915c0.094 0.0493 0.41812 0.0423 0.41812 0.0423 2e-3 0 4.7112-0.30792 4.7112-0.30792l6.899 0.3432c0.11504-0.10803 0.12205-0.61341 0.12205-0.61341v-2.0443c-0.0846-0.10585-0.46042-0.18102-0.46042-0.18102"/><path d="m420.51 41.534v2.5424c0.0846 0.10586 3.454 0.86018 3.454 0.86018 1.9222 0.44399 2.3193 0.61076 2.3945 0.65305 0 7e-3 0.29607 0.32677 0.29607 0.32677 0 0.0193 0.15274 0.49571 0.20446 4.0133l0.0611 11.901-0.0353 7.5006-0.15733 6.6076v0.51674c0 1.337-0.20448 1.7484-0.29148 1.8611 0 0-0.16676 0.16218-1.0269 0.40434-0.035 7e-3 -0.63203 0.13631-4.5114 0.99142l-0.37366 0.0754-0.087 2.6364c0.11046 0.10804 13.638-0.20689 13.638-0.20689l19.031 0.31493c0.10345-0.0706 0.22792-0.41112 0.22792-0.41112 0-2e-3 3.7409-11.257 3.7409-11.257l-0.80821-0.0193h-2.1571c-0.0918 0.0539-0.91406 1.4496-0.91406 1.4496-1.4946 2.6741-2.458 4.2131-2.9467 4.7066-0.47226 0.50054-1.0197 0.85535-1.6684 1.0784-0.11988 0.0377-0.68834 0.16-2.8691 0.16-2e-3 0-1.0574 0.028-1.0574 0.028h-11.382c0.0283-2e-3 0.0399-1.2877 0.0399-3.1135 0-4.5278-0.0682-12.392-0.0682-12.392l7.1808 0.10827c3.1676 0 3.8607 0.19723 3.9971 0.25596 0.32894 0.14114 0.54985 0.3548 0.67673 0.65788 0.0353 0.0894 0.24895 0.74029 0.98924 4.4693l0.0727 0.38066 2.881 0.087c0.10804-0.11286-0.20689-7.7285-0.20689-7.7285l0.31493-7.6483c-0.10562-0.11286-0.61559-0.12229-0.61559-0.12229h-2.2417c-0.10586 0.0822-0.45824 1.4356-0.45824 1.4356-0.55444 2.6506-0.87178 3.3885-1.0081 3.593-0.22308 0.32193-0.49571 0.531-0.83891 0.63903-0.20447 0.0541-1.062 0.1832-4.5278 0.1832h-6.3775c0.10585-0.01 0.1786-4.9204 0.1786-4.9204l0.19287-8.5556 10.898 0.10585c2.5356 0 3.5458 0.17862 3.9477 0.32653 0.32894 0.13172 0.62961 0.4348 0.87178 0.87178 0.45341 0.7942 1.0595 2.4462 1.8045 4.9112l0.10103 0.33837 2.9631 0.0776h0.1223l-0.0824-0.67214c-0.41111-3.1016-0.63903-6.3067-0.67432-9.5236l-7e-3 -0.48168c-0.11046-0.10585-19.689 0.20206-19.689 0.20206-4.8264 0-9.0583-0.10344-12.576-0.30091-2e-3 0-0.6226-0.0329-0.6226-0.0329v0.11528z"/><path d="m463.44 41.534v2.5424c0.0846 0.10586 3.454 0.86018 3.454 0.86018 2.0068 0.46284 2.3476 0.6226 2.3945 0.65088 0 7e-3 0.3009 0.32193 0.3009 0.32193 7e-3 0.0445 0.15976 0.61075 0.20906 4.0203l0.0493 11.901-0.0242 7.5028-0.15758 6.6054v0.51674c0 1.3442-0.20665 1.7484-0.29366 1.8589 0-7e-3 -0.97522 0.38767-1.0221 0.40652-0.0259 0-0.58755 0.12689-4.5186 0.99142 2e-3 0-0.37825 0.0754-0.37825 0.0754l-0.087 2.6364c0.11046 0.10804 13.642-0.20689 13.642-0.20689l19.038 0.31493c0.10563-0.0706 0.2255-0.41112 0.2255-0.41112 0-2e-3 3.7339-11.257 3.7339-11.257l-0.80363-0.0193h-2.1501c-0.094 0.0539-0.91649 1.4402-0.91649 1.4402-1.8233 3.2662-2.6129 4.3683-2.9583 4.7185-0.48168 0.50755-1.0245 0.85994-1.659 1.076-0.11746 0.0377-0.69075 0.16-2.8713 0.16-2e-3 0-1.0622 0.028-1.0622 0.028h-11.377c0.0283-2e-3 0.0399-1.2877 0.0399-3.1135 0-4.5278-0.0681-12.392-0.0681-12.392l7.1763 0.10827c3.1652 0 3.8702 0.19723 4.0111 0.25596 0.32193 0.14114 0.53801 0.35262 0.67674 0.6673 0.0283 0.0752 0.22332 0.66514 0.97981 4.4599l0.0776 0.38066 2.8785 0.087c0.10803-0.11286-0.2139-7.7285-0.2139-7.7285l0.32193-7.6483c-0.10586-0.11286-0.611-0.12229-0.611-0.12229h-2.2441c-0.10562 0.08-0.45583 1.4076-0.45583 1.4076-0.57571 2.7703-0.90707 3.454-1.0221 3.6186-0.21147 0.32193-0.4841 0.53099-0.83189 0.64144-0.20665 0.0541-1.0738 0.18321-4.5138 0.18321h-6.3961c0.10586-0.01 0.18803-4.9204 0.18803-4.9204l0.18103-8.5556 10.898 0.10585c2.5566 0 3.5528 0.17862 3.9405 0.32653 0.34078 0.1293 0.62985 0.41353 0.88604 0.87178 0.46283 0.81304 1.0525 2.4179 1.8023 4.9112l0.0986 0.33595 2.9701 0.08h0.12448l-0.0916-0.67214c-0.41836-3.1345-0.64144-6.3374-0.66489-9.5166l-7e-3 -0.48628c-0.11045-0.10828-19.694 0.19964-19.694 0.19964-4.8218 0-9.0559-0.10344-12.583-0.30091l-0.62259-0.0329v0.11528z"/></g></svg>
